<?xml version="1.0" encoding="UTF-8"?>
<svg id="Capa_1" data-name="Capa 1" xmlns="http://www.w3.org/2000/svg" viewBox="0 0 276.73 84.47">
  <defs>
    <style>
      .cls-1 {
        fill: #fff;
      }

      .cls-2 {
        fill: #054b89;
      }

      .cls-3 {
        fill: #18a3d6;
      }
    </style>
  </defs>
  <g>
    <path class="cls-1" d="M21.04,57.79c-.41,0-.73-.16-.97-.49-.23-.33-.35-.71-.35-1.15v-11.92H10.97v11.96c0,.47-.08,.85-.25,1.15-.17,.3-.49,.45-.99,.45H1.07c-.3,0-.56-.16-.76-.47-.21-.31-.31-.69-.31-1.13V14.26c0-1.97,.41-3.82,1.23-5.55s1.94-3.24,3.35-4.54c1.41-1.3,3.04-2.32,4.89-3.06s3.8-1.11,5.86-1.11,4.01,.37,5.88,1.11,3.49,1.76,4.89,3.06c1.4,1.3,2.51,2.82,3.35,4.54,.83,1.73,1.25,3.58,1.25,5.55V56.14c0,.41-.1,.79-.31,1.13-.21,.34-.54,.51-1.01,.51h-8.34Zm-10.07-23.14h8.75V14.88c0-.66-.1-1.28-.29-1.87-.19-.59-.47-1.11-.84-1.56-.37-.45-.83-.81-1.38-1.09-.55-.27-1.17-.41-1.85-.41s-1.33,.14-1.87,.41c-.53,.27-.99,.64-1.38,1.09-.38,.45-.67,.97-.86,1.56-.19,.59-.29,1.21-.29,1.87v19.77Z"/>
    <path class="cls-1" d="M61.48,64.32c.22,0,.42,.06,.62,.19,.19,.12,.29,.33,.29,.64v5.96c0,.38-.1,.62-.29,.72-.19,.1-.4,.14-.62,.14h-3.12c-2.16,0-4.14-.34-5.94-1.03-1.79-.69-3.34-1.64-4.64-2.88-1.3-1.23-2.32-2.71-3.04-4.42-.73-1.71-1.1-3.6-1.13-5.65-1.48-.44-2.85-1.07-4.11-1.89-1.26-.82-2.36-1.81-3.29-2.96-.93-1.15-1.66-2.46-2.18-3.93-.52-1.47-.78-3.06-.78-4.79V14.3c0-2.22,.41-4.21,1.23-5.98,.82-1.77,1.93-3.27,3.33-4.5s3.02-2.17,4.87-2.82c1.85-.64,3.8-.97,5.86-.97s4.01,.32,5.88,.97c1.86,.64,3.5,1.58,4.91,2.79,1.41,1.22,2.53,2.71,3.37,4.48,.84,1.77,1.25,3.77,1.25,6.02v30.13c0,1.86-.29,3.56-.86,5.1-.58,1.53-1.38,2.89-2.4,4.07-1.03,1.18-2.23,2.16-3.62,2.94-1.38,.78-2.87,1.35-4.46,1.71v.62c0,.74,.13,1.44,.39,2.1s.62,1.24,1.09,1.75c.46,.51,1.04,.9,1.73,1.19,.68,.29,1.45,.43,2.3,.43h3.37Zm-17.3-20.47c0,.66,.1,1.28,.29,1.87,.19,.59,.47,1.11,.84,1.56,.37,.45,.82,.82,1.36,1.09,.53,.27,1.16,.41,1.87,.41s1.34-.12,1.89-.37c.55-.25,1.01-.58,1.4-1.01,.38-.42,.68-.92,.88-1.48,.21-.56,.31-1.17,.31-1.83V14.92c0-.66-.1-1.29-.31-1.89-.21-.6-.49-1.14-.86-1.6-.37-.47-.83-.84-1.38-1.11-.55-.27-1.17-.41-1.85-.41s-1.34,.14-1.89,.41c-.55,.27-1.01,.64-1.38,1.11-.37,.47-.66,1-.86,1.6-.21,.6-.31,1.23-.31,1.89v28.93Z"/>
    <path class="cls-1" d="M77.46,43.81c0,.66,.1,1.28,.29,1.87,.19,.59,.48,1.12,.86,1.58,.38,.47,.84,.84,1.38,1.11,.54,.27,1.16,.41,1.87,.41s1.3-.14,1.85-.41c.55-.27,1.01-.64,1.38-1.11,.37-.47,.65-.99,.84-1.58,.19-.59,.29-1.21,.29-1.87V2.55c0-.44,.11-.82,.33-1.15,.22-.33,.55-.49,.99-.49h8.34c.47,0,.8,.17,1.01,.51,.21,.34,.31,.72,.31,1.13V44.43c0,1.97-.42,3.82-1.25,5.55-.84,1.73-1.95,3.24-3.35,4.54-1.4,1.3-3.03,2.32-4.89,3.06s-3.82,1.11-5.88,1.11-4.01-.37-5.86-1.11-3.48-1.76-4.89-3.06c-1.41-1.3-2.53-2.81-3.35-4.54-.82-1.73-1.23-3.58-1.23-5.55V2.51c0-.44,.1-.81,.31-1.13s.46-.47,.76-.47h8.67c.49,0,.82,.16,.99,.47,.16,.31,.25,.69,.25,1.13V43.81Z"/>
    <path class="cls-1" d="M121.3,57.79c-.41,0-.73-.16-.97-.49-.23-.33-.35-.71-.35-1.15v-11.92h-8.75v11.96c0,.47-.08,.85-.25,1.15-.17,.3-.49,.45-.99,.45h-8.67c-.3,0-.56-.16-.76-.47-.21-.31-.31-.69-.31-1.13V14.26c0-1.97,.41-3.82,1.23-5.55s1.94-3.24,3.35-4.54c1.41-1.3,3.04-2.32,4.89-3.06s3.8-1.11,5.86-1.11,4.01,.37,5.88,1.11,3.49,1.76,4.89,3.06c1.4,1.3,2.51,2.82,3.35,4.54,.83,1.73,1.25,3.58,1.25,5.55V56.14c0,.41-.1,.79-.31,1.13-.21,.34-.54,.51-1.01,.51h-8.34Zm-10.07-23.14h8.75V14.88c0-.66-.1-1.28-.29-1.87-.19-.59-.47-1.11-.84-1.56-.37-.45-.83-.81-1.38-1.09-.55-.27-1.17-.41-1.85-.41s-1.33,.14-1.87,.41c-.53,.27-.99,.64-1.38,1.09-.38,.45-.67,.97-.86,1.56-.19,.59-.29,1.21-.29,1.87v19.77Z"/>
    <path class="cls-1" d="M185.3,2.51c0-.49,.11-.88,.33-1.17,.22-.29,.56-.43,1.03-.43h8.22c.47,0,.81,.14,1.03,.43,.22,.29,.33,.68,.33,1.17V47.88h13.89c.77,0,1.15,.47,1.15,1.4v7.03c0,.99-.38,1.48-1.15,1.48h-23.43c-.93,0-1.4-.52-1.4-1.56V2.51Z"/>
    <path class="cls-1" d="M233.75,57.79c-.41,0-.73-.16-.97-.49-.23-.33-.35-.71-.35-1.15v-11.92h-8.75v11.96c0,.47-.08,.85-.25,1.15-.17,.3-.49,.45-.99,.45h-8.67c-.3,0-.56-.16-.76-.47-.21-.31-.31-.69-.31-1.13V14.26c0-1.97,.41-3.82,1.23-5.55s1.94-3.24,3.35-4.54c1.41-1.3,3.04-2.32,4.89-3.06s3.8-1.11,5.86-1.11,4.01,.37,5.88,1.11,3.49,1.76,4.89,3.06c1.4,1.3,2.51,2.82,3.35,4.54,.83,1.73,1.25,3.58,1.25,5.55V56.14c0,.41-.1,.79-.31,1.13-.21,.34-.54,.51-1.01,.51h-8.34Zm-10.07-23.14h8.75V14.88c0-.66-.1-1.28-.29-1.87-.19-.59-.47-1.11-.84-1.56-.37-.45-.83-.81-1.38-1.09-.55-.27-1.17-.41-1.85-.41s-1.33,.14-1.87,.41c-.53,.27-.99,.64-1.38,1.09-.38,.45-.67,.97-.86,1.56-.19,.59-.29,1.21-.29,1.87v19.77Z"/>
    <path class="cls-1" d="M246.85,2.51c0-.49,.12-.88,.35-1.17,.23-.29,.58-.43,1.05-.43h13.07c2.14,0,4.1,.36,5.88,1.07,1.78,.71,3.31,1.71,4.58,2.98,1.27,1.27,2.26,2.78,2.96,4.52,.7,1.74,1.05,3.64,1.05,5.69v4.07c0,1.15-.19,2.24-.58,3.27-.38,1.03-.87,1.95-1.46,2.75-.59,.81-1.24,1.47-1.95,1.99-.71,.52-1.4,.85-2.05,.99,.58,.16,1.26,.49,2.05,.99,.79,.49,1.56,1.18,2.3,2.06,.74,.88,1.36,1.97,1.87,3.27,.51,1.3,.76,2.84,.76,4.62v5.1c0,2-.39,3.83-1.17,5.49-.78,1.66-1.83,3.08-3.14,4.27-1.31,1.19-2.82,2.12-4.52,2.77-1.7,.66-3.47,.99-5.3,.99h-14.34c-.93,0-1.4-.52-1.4-1.56V2.51Zm10.15,8.38v13.32h3.62c.44,0,.94-.06,1.5-.19,.56-.12,1.08-.35,1.56-.68s.88-.78,1.21-1.36c.33-.58,.49-1.3,.49-2.18v-4.03c0-1.73-.44-2.97-1.32-3.74-.88-.77-1.99-1.15-3.33-1.15h-3.74Zm0,22.15v14.84h4.27c.74,0,1.38-.14,1.93-.41,.55-.27,1.01-.64,1.4-1.09s.67-.96,.86-1.52c.19-.56,.29-1.12,.29-1.66v-5.01c0-.88-.13-1.64-.39-2.28-.26-.64-.6-1.18-1.03-1.6-.42-.42-.92-.74-1.5-.94-.58-.21-1.17-.31-1.77-.31h-4.07Z"/>
  </g>
  <g>
    <path class="cls-1" d="M68.74,69.96c-.05-.09-.06-.19-.05-.29,.01-.1,.1-.2,.25-.31,.18-.13,.37-.25,.57-.38,.2-.13,.41-.24,.65-.34,.24-.1,.51-.18,.81-.24,.3-.06,.64-.09,1.03-.09,.5,0,.96,.08,1.4,.25,.44,.17,.82,.41,1.14,.71s.58,.67,.77,1.1c.19,.43,.28,.9,.28,1.41v5.66c0,.44-.06,.83-.18,1.16-.12,.33-.29,.63-.49,.88-.21,.25-.43,.46-.69,.63s-.52,.3-.79,.41c-.27,.1-.54,.17-.79,.22s-.48,.06-.68,.06c-.42,0-.85-.07-1.3-.21-.45-.14-.86-.35-1.22-.65-.37-.29-.67-.67-.9-1.14-.24-.46-.35-1.02-.35-1.68v-.28c0-.59,.09-1.11,.28-1.56,.19-.45,.45-.83,.78-1.13,.33-.3,.72-.53,1.17-.68s.93-.23,1.45-.22h1.59v-1.32c0-.19-.03-.39-.1-.61-.07-.22-.17-.42-.31-.61-.14-.19-.33-.35-.55-.47-.23-.13-.5-.19-.83-.19-.51,0-.92,.08-1.23,.24s-.58,.34-.81,.54c-.09,.06-.18,.1-.27,.11-.09,.01-.17-.04-.24-.15l-.39-.85Zm4.73,4.87h-.94c-.43,0-.78,.06-1.07,.17-.28,.11-.51,.26-.68,.45-.17,.19-.29,.41-.36,.65-.07,.25-.11,.51-.11,.78v.24c0,.33,.05,.61,.16,.84s.24,.42,.41,.57c.17,.15,.35,.25,.54,.32s.38,.1,.55,.1c.16,0,.33-.03,.5-.08s.34-.15,.49-.27c.15-.13,.27-.29,.36-.49,.09-.2,.14-.45,.14-.74v-2.54Z"/>
    <path class="cls-1" d="M77.01,71.65c0-.48,.09-.92,.28-1.33,.19-.41,.45-.76,.77-1.06s.71-.53,1.15-.69,.91-.25,1.42-.25,.98,.08,1.42,.25,.83,.4,1.15,.69,.58,.65,.77,1.06c.19,.41,.28,.85,.28,1.33v5.85c0,.49-.09,.93-.26,1.34-.17,.4-.41,.75-.71,1.05s-.66,.53-1.07,.69-.86,.25-1.34,.25c-.3,0-.6-.04-.89-.13-.3-.09-.58-.21-.86-.37v3.79c0,.24-.11,.37-.34,.37h-1.43c-.24,0-.35-.12-.35-.37v-12.46Zm2.12,5.8c0,.2,.04,.39,.11,.57,.07,.18,.18,.34,.31,.48s.29,.25,.48,.33c.18,.08,.38,.12,.6,.12s.42-.04,.61-.12c.18-.08,.34-.19,.48-.33,.13-.14,.24-.3,.31-.48,.07-.18,.11-.37,.11-.58v-5.75c0-.2-.04-.39-.11-.57-.08-.18-.18-.34-.31-.48-.13-.14-.29-.25-.48-.33s-.39-.12-.61-.12-.41,.04-.6,.12-.34,.19-.48,.33-.24,.3-.31,.48c-.08,.18-.11,.37-.11,.57v5.76Z"/>
    <path class="cls-1" d="M85.69,72.07c0-.66,.12-1.23,.35-1.7,.23-.48,.53-.87,.88-1.17,.36-.3,.75-.52,1.19-.67s.86-.21,1.26-.21c.25,0,.49,0,.7,0,.22,0,.4,.03,.56,.06,.23,.05,.34,.18,.34,.4v1.09c0,.14-.05,.24-.16,.31-.11,.06-.22,.09-.35,.08-.13,0-.26-.01-.38-.01h-.38c-.3,0-.56,.05-.8,.16-.24,.11-.43,.25-.6,.44-.16,.18-.29,.4-.38,.66-.09,.26-.13,.53-.13,.82v7.81c0,.17-.05,.29-.15,.36-.1,.08-.19,.11-.28,.11h-1.39c-.09,0-.16-.03-.22-.1-.06-.07-.09-.16-.09-.28v-8.16Z"/>
    <path class="cls-1" d="M91.63,71.65c0-.46,.09-.89,.28-1.29,.19-.41,.45-.76,.77-1.06s.71-.54,1.15-.71c.44-.17,.91-.26,1.4-.26s.97,.09,1.39,.26c.42,.17,.79,.41,1.1,.71s.54,.66,.71,1.06c.17,.41,.25,.84,.25,1.29v2.97c0,.11-.03,.2-.1,.27-.07,.07-.16,.1-.27,.1h-4.58v2.51c0,.2,.04,.39,.12,.57,.08,.18,.19,.34,.32,.47,.14,.13,.3,.24,.48,.32,.18,.08,.39,.12,.61,.12s.42-.04,.6-.12,.33-.19,.46-.34,.22-.3,.29-.48c.07-.18,.11-.37,.11-.57v-.42c0-.09,.03-.17,.09-.21,.06-.05,.13-.07,.22-.07h1.34c.07,0,.13,.02,.19,.05,.05,.04,.08,.12,.08,.25v.42c0,.46-.08,.9-.25,1.3-.17,.4-.4,.75-.7,1.06-.3,.3-.66,.54-1.09,.71s-.89,.26-1.39,.26-.96-.09-1.4-.26-.82-.41-1.15-.71-.58-.66-.77-1.06c-.19-.4-.28-.83-.28-1.3v-5.85Zm2.12,1.84h3v-1.83c0-.2-.04-.39-.11-.57-.07-.19-.17-.34-.3-.48s-.29-.24-.47-.32-.38-.12-.59-.12-.42,.04-.61,.12c-.19,.08-.35,.19-.48,.32s-.25,.29-.32,.48c-.08,.18-.12,.38-.12,.57v1.83Z"/>
    <path class="cls-1" d="M105.31,71.76c0-.2-.03-.4-.1-.59-.07-.19-.16-.36-.29-.5-.13-.15-.28-.26-.47-.35-.19-.09-.4-.13-.64-.13-.22,0-.42,.04-.61,.12s-.34,.19-.47,.32c-.13,.14-.23,.3-.31,.48-.07,.19-.12,.38-.12,.6v8.52c0,.12-.03,.21-.09,.28-.06,.07-.13,.1-.22,.1h-1.5c-.08,0-.15-.03-.22-.1-.07-.07-.1-.16-.1-.28v-8.52c0-.46,.09-.89,.27-1.3,.18-.41,.42-.77,.74-1.08s.7-.56,1.13-.74c.44-.19,.91-.28,1.43-.28,.58,0,1.1,.09,1.56,.27,.46,.18,.84,.42,1.16,.73,.31,.31,.55,.67,.72,1.08,.17,.41,.25,.85,.25,1.32v8.53c0,.12-.03,.21-.1,.27-.07,.06-.14,.09-.22,.09h-1.49c-.09,0-.16-.03-.22-.09-.06-.06-.09-.15-.09-.27v-8.48Z"/>
    <path class="cls-1" d="M116.26,77.5c0,.49-.09,.93-.28,1.34-.19,.4-.45,.75-.77,1.05s-.71,.53-1.15,.69-.91,.25-1.4,.25-.99-.08-1.43-.25-.82-.4-1.15-.69-.58-.65-.77-1.05c-.19-.41-.28-.85-.28-1.34v-5.85c0-.48,.09-.92,.26-1.33,.17-.41,.41-.76,.71-1.06s.66-.53,1.07-.69,.86-.25,1.34-.25c.29,0,.59,.05,.88,.14s.59,.21,.86,.37v-4.15c0-.11,.03-.2,.08-.27,.05-.07,.14-.11,.26-.11h1.43c.12,0,.21,.04,.27,.11s.09,.16,.09,.27v12.82Zm-2.12-5.8c0-.2-.04-.39-.11-.57-.08-.18-.18-.34-.31-.48-.13-.14-.29-.25-.48-.33-.18-.08-.38-.12-.59-.12s-.42,.04-.61,.12c-.18,.08-.34,.19-.48,.33-.13,.14-.24,.3-.31,.48-.08,.19-.11,.38-.11,.57v5.75c0,.2,.04,.39,.11,.57,.07,.18,.18,.34,.31,.48,.13,.14,.29,.25,.48,.33,.18,.08,.39,.12,.61,.12s.41-.04,.59-.12c.18-.08,.34-.19,.48-.33,.13-.14,.24-.3,.31-.48,.07-.18,.11-.37,.11-.57v-5.76Z"/>
    <path class="cls-1" d="M117.63,71.65c0-.46,.09-.89,.28-1.29,.19-.41,.45-.76,.77-1.06s.71-.54,1.15-.71c.44-.17,.91-.26,1.4-.26s.97,.09,1.39,.26c.42,.17,.79,.41,1.1,.71s.54,.66,.71,1.06c.17,.41,.25,.84,.25,1.29v2.97c0,.11-.03,.2-.1,.27-.07,.07-.16,.1-.27,.1h-4.58v2.51c0,.2,.04,.39,.12,.57,.08,.18,.19,.34,.32,.47,.14,.13,.3,.24,.48,.32,.18,.08,.39,.12,.61,.12s.42-.04,.6-.12,.33-.19,.46-.34,.22-.3,.29-.48c.07-.18,.11-.37,.11-.57v-.42c0-.09,.03-.17,.09-.21,.06-.05,.13-.07,.22-.07h1.34c.07,0,.13,.02,.19,.05,.05,.04,.08,.12,.08,.25v.42c0,.46-.08,.9-.25,1.3-.17,.4-.4,.75-.7,1.06-.3,.3-.66,.54-1.09,.71s-.89,.26-1.39,.26-.96-.09-1.4-.26-.82-.41-1.15-.71-.58-.66-.77-1.06c-.19-.4-.28-.83-.28-1.3v-5.85Zm2.12,1.84h3v-1.83c0-.2-.04-.39-.11-.57-.07-.19-.17-.34-.3-.48s-.29-.24-.47-.32-.38-.12-.59-.12-.42,.04-.61,.12c-.19,.08-.35,.19-.48,.32s-.25,.29-.32,.48c-.08,.18-.12,.38-.12,.57v1.83Zm2.55-6.54c-.09,.15-.17,.24-.24,.28-.07,.04-.16,.06-.25,.06h-.91c-.1,0-.18-.05-.24-.15-.06-.1-.06-.23,0-.38l.9-1.96c.05-.13,.11-.22,.17-.27,.06-.05,.14-.07,.25-.07h1.14c.13,0,.22,.05,.26,.17,.04,.11,.02,.23-.05,.37l-1.04,1.96Z"/>
    <path class="cls-1" d="M126.24,78.91c0-.16,.04-.28,.11-.37,.07-.09,.18-.14,.33-.14h1.4c.29,0,.44,.17,.44,.5v1.19c0,.35-.03,.64-.09,.89-.06,.25-.13,.46-.22,.64-.09,.18-.19,.32-.29,.44s-.2,.22-.29,.29c-.06,.06-.13,.1-.19,.11-.06,.01-.14-.01-.22-.08l-.35-.29c-.09-.09-.11-.17-.08-.24,.04-.08,.07-.13,.11-.17,.13-.14,.23-.29,.31-.45,.08-.16,.12-.29,.12-.41,0-.06,0-.11-.02-.15-.02-.04-.06-.06-.12-.06h-.54c-.1,0-.19-.04-.27-.11-.08-.07-.12-.18-.12-.34v-1.25Z"/>
    <path class="cls-1" d="M137.51,80.22c0,.09-.02,.17-.07,.26-.04,.09-.12,.13-.24,.13h-1.5c-.11,0-.19-.04-.24-.11-.05-.07-.08-.17-.08-.28v-8.27c.02-.72,.15-1.32,.37-1.79,.22-.47,.5-.84,.84-1.11,.34-.27,.71-.46,1.11-.57,.4-.11,.8-.16,1.2-.16h.08c.5,0,.98,.11,1.44,.32,.46,.22,.83,.58,1.12,1.08,.27-.5,.63-.85,1.07-1.07,.44-.22,.91-.33,1.4-.33h.08c.38,0,.79,.05,1.2,.16,.42,.11,.8,.3,1.14,.57,.35,.28,.63,.65,.87,1.11,.23,.47,.36,1.07,.37,1.8,0,.02,.01,.04,.01,.07v8.19c0,.09-.03,.18-.08,.27-.05,.08-.14,.12-.25,.12h-1.48c-.21,0-.32-.13-.32-.39v-8.28c0-.34-.06-.62-.15-.84s-.22-.4-.36-.52c-.15-.13-.3-.22-.47-.27-.17-.05-.32-.08-.47-.09h-.17c-.16,0-.32,.04-.47,.09-.16,.05-.3,.14-.43,.28-.13,.13-.24,.31-.32,.54-.08,.23-.12,.52-.12,.89v8.21c0,.09-.03,.18-.08,.27-.05,.08-.14,.12-.25,.12h-1.48c-.21,0-.32-.13-.32-.39v-8.25c-.02-.36-.08-.66-.18-.88-.11-.23-.24-.41-.39-.54-.15-.13-.32-.22-.49-.27-.17-.05-.33-.07-.47-.07h-.09c-.15,0-.3,.04-.46,.09-.16,.05-.3,.14-.43,.27s-.24,.31-.32,.54c-.08,.23-.13,.52-.13,.87v8.23Z"/>
    <path class="cls-1" d="M149.29,71.65c0-.46,.09-.89,.28-1.29,.19-.41,.45-.76,.77-1.06s.71-.54,1.15-.71c.44-.17,.91-.26,1.4-.26s.97,.09,1.39,.26c.42,.17,.79,.41,1.1,.71s.54,.66,.71,1.06c.17,.41,.25,.84,.25,1.29v2.97c0,.11-.03,.2-.1,.27-.07,.07-.16,.1-.27,.1h-4.58v2.51c0,.2,.04,.39,.12,.57,.08,.18,.19,.34,.32,.47,.14,.13,.3,.24,.48,.32,.18,.08,.39,.12,.61,.12s.42-.04,.6-.12,.33-.19,.46-.34,.22-.3,.29-.48c.07-.18,.11-.37,.11-.57v-.42c0-.09,.03-.17,.09-.21,.06-.05,.13-.07,.22-.07h1.34c.07,0,.13,.02,.19,.05,.05,.04,.08,.12,.08,.25v.42c0,.46-.08,.9-.25,1.3-.17,.4-.4,.75-.7,1.06-.3,.3-.66,.54-1.09,.71s-.89,.26-1.39,.26-.96-.09-1.4-.26-.82-.41-1.15-.71-.58-.66-.77-1.06c-.19-.4-.28-.83-.28-1.3v-5.85Zm2.12,1.84h3v-1.83c0-.2-.04-.39-.11-.57-.07-.19-.17-.34-.3-.48s-.29-.24-.47-.32-.38-.12-.59-.12-.42,.04-.61,.12c-.19,.08-.35,.19-.48,.32s-.25,.29-.32,.48c-.08,.18-.12,.38-.12,.57v1.83Z"/>
    <path class="cls-1" d="M164.9,77.5c0,.49-.09,.93-.28,1.34-.19,.4-.45,.75-.77,1.05s-.71,.53-1.15,.69-.91,.25-1.4,.25-.99-.08-1.43-.25-.82-.4-1.15-.69-.58-.65-.77-1.05c-.19-.41-.28-.85-.28-1.34v-5.85c0-.48,.09-.92,.26-1.33,.17-.41,.41-.76,.71-1.06s.66-.53,1.07-.69,.86-.25,1.34-.25c.29,0,.59,.05,.88,.14s.59,.21,.86,.37v-4.15c0-.11,.03-.2,.08-.27,.05-.07,.14-.11,.26-.11h1.43c.12,0,.21,.04,.27,.11s.09,.16,.09,.27v12.82Zm-2.12-5.8c0-.2-.04-.39-.11-.57-.08-.18-.18-.34-.31-.48-.13-.14-.29-.25-.48-.33-.18-.08-.38-.12-.59-.12s-.42,.04-.61,.12c-.18,.08-.34,.19-.48,.33-.13,.14-.24,.3-.31,.48-.08,.19-.11,.38-.11,.57v5.75c0,.2,.04,.39,.11,.57,.07,.18,.18,.34,.31,.48,.13,.14,.29,.25,.48,.33,.18,.08,.39,.12,.61,.12s.41-.04,.59-.12c.18-.08,.34-.19,.48-.33,.13-.14,.24-.3,.31-.48,.07-.18,.11-.37,.11-.57v-5.76Z"/>
    <path class="cls-1" d="M166.46,68.86c0-.09,.03-.16,.09-.23s.15-.1,.26-.1h1.38c.11,0,.2,.04,.28,.11,.07,.07,.11,.15,.11,.22v11.38c0,.24-.13,.37-.39,.37h-1.38c-.23,0-.35-.12-.35-.37v-11.38Zm1.96-1.65c-.09,.15-.17,.24-.24,.28-.08,.04-.16,.06-.25,.06h-.91c-.1,0-.18-.05-.24-.15-.06-.1-.06-.23,0-.38l.9-1.96c.06-.13,.11-.22,.17-.27,.06-.05,.14-.07,.25-.07h1.14c.13,0,.22,.06,.26,.17,.04,.11,.02,.23-.05,.37l-1.04,1.96Z"/>
    <path class="cls-1" d="M170.42,78.91c0-.16,.04-.28,.11-.37,.07-.09,.18-.14,.33-.14h1.4c.29,0,.44,.17,.44,.5v1.19c0,.35-.03,.64-.09,.89-.06,.25-.13,.46-.22,.64-.09,.18-.19,.32-.29,.44s-.2,.22-.29,.29c-.06,.06-.13,.1-.19,.11-.06,.01-.14-.01-.22-.08l-.35-.29c-.09-.09-.11-.17-.08-.24,.04-.08,.07-.13,.11-.17,.13-.14,.23-.29,.31-.45,.08-.16,.12-.29,.12-.41,0-.06,0-.11-.02-.15-.02-.04-.06-.06-.12-.06h-.54c-.1,0-.19-.04-.27-.11-.08-.07-.12-.18-.12-.34v-1.25Z"/>
    <path class="cls-1" d="M179.71,69.96c-.05-.09-.06-.19-.05-.29,.01-.1,.1-.2,.25-.31,.18-.13,.37-.25,.57-.38,.2-.13,.41-.24,.65-.34,.24-.1,.51-.18,.81-.24,.3-.06,.64-.09,1.03-.09,.5,0,.96,.08,1.4,.25,.44,.17,.82,.41,1.14,.71s.58,.67,.77,1.1c.19,.43,.28,.9,.28,1.41v5.66c0,.44-.06,.83-.18,1.16-.12,.33-.29,.63-.49,.88-.21,.25-.43,.46-.69,.63s-.52,.3-.79,.41c-.27,.1-.54,.17-.79,.22s-.48,.06-.68,.06c-.42,0-.85-.07-1.3-.21-.45-.14-.86-.35-1.22-.65-.37-.29-.67-.67-.9-1.14-.24-.46-.35-1.02-.35-1.68v-.28c0-.59,.09-1.11,.28-1.56,.19-.45,.45-.83,.78-1.13,.33-.3,.72-.53,1.17-.68s.93-.23,1.45-.22h1.59v-1.32c0-.19-.03-.39-.1-.61-.07-.22-.17-.42-.31-.61-.14-.19-.33-.35-.55-.47-.23-.13-.5-.19-.83-.19-.51,0-.92,.08-1.23,.24s-.58,.34-.81,.54c-.09,.06-.18,.1-.27,.11-.09,.01-.17-.04-.24-.15l-.39-.85Zm4.73,4.87h-.94c-.43,0-.78,.06-1.07,.17-.28,.11-.51,.26-.68,.45-.17,.19-.29,.41-.36,.65-.07,.25-.11,.51-.11,.78v.24c0,.33,.05,.61,.16,.84s.24,.42,.41,.57c.17,.15,.35,.25,.54,.32s.38,.1,.55,.1c.16,0,.33-.03,.5-.08s.34-.15,.49-.27c.15-.13,.27-.29,.36-.49,.09-.2,.14-.45,.14-.74v-2.54Z"/>
    <path class="cls-1" d="M187.92,74.12v-2.49c0-.46,.09-.88,.28-1.29,.19-.4,.45-.75,.77-1.06s.71-.54,1.14-.71c.44-.17,.9-.26,1.4-.26s.97,.09,1.4,.26c.43,.17,.8,.41,1.11,.71,.31,.3,.55,.66,.73,1.06,.17,.41,.26,.84,.26,1.29v.78c0,.16-.03,.26-.08,.31-.05,.05-.12,.07-.22,.07h-1.29c-.13,0-.23-.02-.29-.07-.06-.05-.09-.15-.09-.31v-.72c0-.2-.04-.39-.11-.57-.07-.18-.17-.34-.3-.48-.13-.14-.28-.25-.46-.33-.18-.08-.38-.12-.6-.12s-.42,.04-.61,.12c-.18,.08-.34,.19-.48,.32-.14,.13-.24,.29-.32,.47-.08,.18-.12,.37-.12,.57v2.51l-2.12-.08Zm2.12,.08v3.24c0,.2,.04,.39,.12,.57,.08,.18,.19,.34,.32,.48,.14,.14,.3,.25,.48,.33,.18,.08,.39,.12,.61,.12s.42-.04,.6-.12c.18-.08,.33-.19,.46-.34,.13-.14,.23-.3,.3-.48,.07-.18,.11-.37,.11-.57v-.58c0-.15,.03-.25,.08-.3,.05-.05,.14-.08,.25-.08h1.33c.09,0,.17,.02,.22,.07s.08,.15,.08,.29v.65c0,.46-.09,.9-.26,1.3-.17,.4-.42,.75-.73,1.06-.31,.3-.68,.54-1.11,.71s-.89,.26-1.4,.26-.96-.08-1.4-.25-.82-.4-1.14-.69-.58-.65-.77-1.05c-.19-.41-.28-.85-.28-1.34v-3.37l2.12,.08Z"/>
    <path class="cls-1" d="M198.97,68.53h1.46c.08,0,.15,.03,.21,.09,.06,.06,.09,.15,.09,.28v1.14c0,.11-.03,.2-.09,.28-.06,.08-.14,.11-.24,.11h-1.43v7.16c0,.34,.08,.61,.25,.8,.17,.2,.45,.3,.85,.3h.33c.15,0,.24,.04,.27,.14,.03,.09,.05,.17,.05,.23v1.21s0,.08-.01,.12c0,.04-.03,.08-.07,.11s-.09,.06-.16,.08c-.07,.02-.17,.04-.28,.04h-.66c-.39,0-.76-.05-1.09-.15s-.61-.27-.85-.5c-.24-.23-.42-.53-.55-.9-.13-.37-.2-.83-.2-1.37v-7.27h-.86c-.06,0-.13-.03-.21-.1-.08-.07-.11-.16-.11-.29v-1.13c0-.13,.04-.23,.11-.29,.07-.06,.14-.09,.21-.09h.86v-1.9c0-.24,.1-.38,.31-.41l1.43-.42c.11-.02,.2,0,.28,.07,.07,.06,.11,.16,.11,.29v2.37Z"/>
    <path class="cls-1" d="M202.06,68.91c0-.12,.03-.21,.1-.28,.07-.07,.14-.1,.22-.1h1.5c.09,0,.16,.03,.22,.1s.09,.16,.09,.28v8.46c0,.21,.04,.42,.11,.61,.07,.19,.17,.36,.31,.51s.29,.26,.48,.34c.18,.08,.39,.12,.62,.12s.44-.04,.62-.12c.18-.08,.34-.19,.47-.33,.13-.14,.23-.3,.29-.48,.07-.18,.1-.37,.11-.58v-8.54c0-.12,.03-.21,.09-.27,.06-.06,.14-.09,.22-.09h1.49c.08,0,.15,.03,.22,.09,.07,.06,.1,.15,.1,.27v8.53c0,.46-.08,.9-.25,1.32-.17,.41-.41,.77-.72,1.08-.31,.31-.7,.55-1.16,.73-.46,.18-.97,.27-1.56,.27-.52,0-1-.09-1.43-.28-.44-.19-.81-.43-1.13-.74-.32-.31-.57-.67-.74-1.08-.18-.41-.27-.84-.27-1.3v-8.52Z"/>
    <path class="cls-1" d="M211.26,69.96c-.05-.09-.06-.19-.05-.29,.01-.1,.1-.2,.25-.31,.18-.13,.37-.25,.57-.38,.2-.13,.41-.24,.65-.34,.24-.1,.51-.18,.81-.24,.3-.06,.64-.09,1.03-.09,.5,0,.96,.08,1.4,.25,.44,.17,.82,.41,1.14,.71s.58,.67,.77,1.1c.19,.43,.28,.9,.28,1.41v5.66c0,.44-.06,.83-.18,1.16-.12,.33-.29,.63-.49,.88-.21,.25-.43,.46-.69,.63s-.52,.3-.79,.41c-.27,.1-.54,.17-.79,.22s-.48,.06-.68,.06c-.42,0-.85-.07-1.3-.21-.45-.14-.86-.35-1.22-.65-.37-.29-.67-.67-.9-1.14-.24-.46-.35-1.02-.35-1.68v-.28c0-.59,.09-1.11,.28-1.56,.19-.45,.45-.83,.78-1.13,.33-.3,.72-.53,1.17-.68s.93-.23,1.45-.22h1.59v-1.32c0-.19-.03-.39-.1-.61-.07-.22-.17-.42-.31-.61-.14-.19-.33-.35-.55-.47-.23-.13-.5-.19-.83-.19-.51,0-.92,.08-1.23,.24s-.58,.34-.81,.54c-.09,.06-.18,.1-.27,.11-.09,.01-.17-.04-.24-.15l-.39-.85Zm4.73,4.87h-.94c-.43,0-.78,.06-1.07,.17-.28,.11-.51,.26-.68,.45-.17,.19-.29,.41-.36,.65-.07,.25-.11,.51-.11,.78v.24c0,.33,.05,.61,.16,.84s.24,.42,.41,.57c.17,.15,.35,.25,.54,.32s.38,.1,.55,.1c.16,0,.33-.03,.5-.08s.34-.15,.49-.27c.15-.13,.27-.29,.36-.49,.09-.2,.14-.45,.14-.74v-2.54Zm-.12-8.01c-.09,.15-.17,.24-.24,.28-.07,.04-.16,.06-.25,.06h-.91c-.1,0-.18-.05-.24-.15-.06-.1-.06-.23,0-.38l.9-1.96c.05-.13,.11-.22,.17-.27,.06-.05,.14-.07,.25-.07h1.14c.13,0,.22,.06,.26,.17,.04,.11,.02,.23-.05,.37l-1.04,1.96Z"/>
  </g>
  <g>
    <path class="cls-1" d="M152.6,34.16c-2.55-.94-4.84-2.45-6.51-4.61-5.63-7.3-1.64-17.32,6.89-19.83,4.67-1.37,10.63-.24,14.75,2.24,.19,.07,1.51,1.1,1.58,1.03,.1-.09-1.57-1.8-1.72-1.94-.4-.36-1.66-1.41-2.11-1.58-.34-.13-.59,.1-.9,.17-3.56,.77-5.69-3.65-2.86-5.93,1.59-1.28,4.02-.73,5,1.02,.15,.27,.36,1.06,.44,1.15,.14,.15,.79,.47,1.03,.63,3.53,2.47,6.1,5.87,7.19,10.08,.95,3.7,.33,7.74,.51,11.54-.37,2.23-3.49,2.28-3.9,.03-2.51,3.34-6.37,5.36-10.42,6.21v1.78h5.56c.71,0,1.59,.71,1.82,1.38s.05,.87,0,1.48c-.27,3.11-.5,6.22-.82,9.33-.25,.9-1.14,1.41-2.04,1.46h-17.95c-1.8-.18-2.07-1.02-2.24-2.61-.31-2.91-.57-5.88-.8-8.79-.08-1.07,.85-2.24,1.93-2.24h5.56v-2Zm9.55-29.39c-2.18,2.22,1.41,5.44,3.39,3.05,1.84-2.21-1.36-5.12-3.39-3.05Zm4.9,2.38c-.15,.55-.4,1.09-.8,1.51,2.72,1.77,4.88,4.34,5.98,7.42,1.37,3.85,.67,7.98,.85,12,.35,1.01,1.67,.87,1.78-.24,.23-2.28-.17-4.93,0-7.25-.12-5.17-2.83-10.17-7.11-13.05-.12-.08-.6-.45-.69-.38Zm-.86,5.35c.09,0,.16,.06,.22,.12,5.75,5.34,5.7,13.45-.07,18.75-.06,.05-.2,.16-.18,.25,2.39-1.17,4.46-3.03,5.76-5.36-.04-2.62,.32-5.53-.22-8.11-.28-1.36-.64-1.91-1.58-2.91-.74-.78-2.71-2.42-3.69-2.77-.06-.02-.26-.09-.25,.03Zm-14.03,3.52c-.26,.05-.58,.34-.75,.54-1.12,1.44-1.04,6.25-.23,7.84,.56,1.09,1.71,1.34,2.4,.22,.98-1.59,1.07-6.76-.2-8.19-.32-.36-.74-.51-1.22-.42Zm9.34,0c-.28,.05-.54,.23-.72,.45-1.21,1.46-1.16,6.58-.18,8.16,.55,.89,1.55,.98,2.19,.12,1.09-1.47,1.05-6.36,.14-7.93-.32-.56-.76-.92-1.44-.8Zm7.21,10.25c-.51,.24-.98,.57-1.49,.81-5.01,2.32-15.28,2.31-20.28-.02-.47-.22-.86-.52-1.29-.74-.05-.03-.13-.11-.17-.02,2.61,6.24,10,8.93,16.26,6.61,3.06-1.14,5.78-3.58,6.97-6.64Zm-21.71,11.02c-.49,.14-.8,.47-.79,1,.02,.7,.19,1.55,.25,2.27,.21,2.48,.41,4.95,.62,7.43,.1,.49,.61,.71,1.07,.71h17.95c.45-.03,.91-.24,1.01-.71,.22-2.72,.45-5.45,.68-8.17,.08-.95,.63-2.39-.77-2.55l-20.02,.02Z"/>
    <path class="cls-3" d="M146.99,37.28l20.02-.02c1.39,.17,.85,1.6,.77,2.55-.23,2.72-.46,5.45-.68,8.17-.1,.47-.56,.69-1.01,.71h-17.95c-.46,0-.97-.22-1.07-.71-.21-2.48-.41-4.95-.62-7.43-.06-.72-.23-1.57-.25-2.27-.01-.53,.29-.86,.79-1Zm13.77,1.23c-.8,.13-1.55,1.69-1.92,2.38-.93,1.74-1.91,3.57-.43,5.35,2.11,2.53,6.22,.85,5.93-2.43-.08-.93-.93-2.49-1.41-3.33s-1.03-2.17-2.18-1.97Z"/>
    <path class="cls-3" d="M168.7,26.26c-1.2,3.06-3.91,5.5-6.97,6.64-6.25,2.32-13.65-.37-16.26-6.61,.04-.09,.12,0,.17,.02,.43,.22,.82,.52,1.29,.74,5,2.33,15.28,2.34,20.28,.02,.52-.24,.98-.57,1.49-.81Z"/>
    <path class="cls-3" d="M167.05,7.15c.09-.07,.58,.3,.69,.38,4.28,2.87,6.99,7.88,7.11,13.05-.17,2.32,.23,4.97,0,7.25-.11,1.11-1.43,1.25-1.78,.24-.17-4.02,.53-8.15-.85-12-1.1-3.08-3.25-5.64-5.98-7.42,.4-.41,.65-.95,.8-1.51Z"/>
    <path class="cls-2" d="M152.16,16.01c.48-.1,.9,.06,1.22,.42,1.28,1.44,1.19,6.6,.2,8.19-.69,1.12-1.84,.87-2.4-.22-.81-1.59-.89-6.4,.23-7.84,.16-.21,.49-.49,.75-.54Z"/>
    <path class="cls-2" d="M161.5,16.01c.68-.12,1.12,.25,1.44,.8,.9,1.57,.95,6.46-.14,7.93-.64,.86-1.64,.76-2.19-.12-.99-1.58-1.04-6.7,.18-8.16,.18-.21,.44-.4,.72-.45Z"/>
    <path class="cls-3" d="M162.15,4.77c2.03-2.07,5.23,.84,3.39,3.05-1.98,2.39-5.57-.83-3.39-3.05Z"/>
    <path class="cls-2" d="M166.18,12.5c-.01-.12,.19-.05,.25-.03,.98,.35,2.95,1.98,3.69,2.77,.94,.99,1.29,1.55,1.58,2.91,.54,2.58,.18,5.48,.22,8.11-1.3,2.33-3.37,4.2-5.76,5.36-.02-.08,.13-.19,.18-.25,5.76-5.3,5.82-13.4,.07-18.75-.06-.06-.13-.12-.22-.12Z"/>
    <path class="cls-2" d="M160.76,38.51c1.15-.19,1.7,1.13,2.18,1.97s1.32,2.4,1.41,3.33c.29,3.28-3.82,4.96-5.93,2.43-1.48-1.78-.5-3.61,.43-5.35,.37-.69,1.12-2.25,1.92-2.38Zm.09,1.1c-.07,.04-.77,1.29-.88,1.48-.81,1.44-2.07,3.5-.35,4.8s4.09-.22,3.58-2.29c-.33-1.33-1.36-2.74-2.02-3.95-.07-.07-.24-.1-.33-.05Z"/>
    <path class="cls-1" d="M160.85,39.61c.08-.05,.26-.03,.33,.05,.65,1.2,1.69,2.61,2.02,3.95,.51,2.07-1.88,3.57-3.58,2.29s-.45-3.36,.35-4.8c.11-.19,.81-1.44,.88-1.48Z"/>
  </g>
</svg>